<?xml version="1.0" encoding="utf-8"?>
<!-- Generator: Adobe Illustrator 21.1.0, SVG Export Plug-In . SVG Version: 6.00 Build 0)  -->
<svg version="1.1" id="Capa_1" xmlns="http://www.w3.org/2000/svg" xmlns:xlink="http://www.w3.org/1999/xlink" x="0px" y="0px"
	 viewBox="0 0 188 188" style="enable-background:new 0 0 188 188;" xml:space="preserve">
<path d="M166.4,131.1c-11.3-9.8-19.4-35.7-19.4-66.2c0-23.1-14.8-42.6-35.5-49.8C110.1,6.8,103,0.5,94.2,0.5
	c-8.7,0-15.9,6.4-17.3,14.7c-20.6,7.2-35.5,26.7-35.5,49.8c0,30.5-8.1,56.4-19.4,66.2c-6.3,5.5-9.9,13.4-9.9,21.7
	c0,9.7,7.9,17.6,17.6,17.6l46.9,0c0,9.7,7.9,17.6,17.6,17.6s17.6-7.9,17.6-17.6h46.9c9.7,0,17.6-7.9,17.6-17.6
	C176.3,144.5,172.7,136.6,166.4,131.1z"/>
</svg>
